<svg xmlns="http://www.w3.org/2000/svg"  viewBox="0 0 100 100" width="100px" height="100px"><path fill="#e85654" d="M75.61,17.061c-17.073-2.749-34.146-2.749-51.219,0c-3.401,0.572-6.756,3.929-7.329,7.329 c-2.748,17.073-2.748,34.146,0,51.219c0.573,3.401,3.928,6.756,7.329,7.329c17.073,2.749,34.146,2.749,51.219,0 c3.401-0.573,6.756-3.928,7.329-7.329c2.748-17.073,2.748-34.146,0-51.219C82.365,20.989,79.011,17.634,75.61,17.061z"/><path fill="#1f212b" d="M49.998,85.99c-8.61,0-17.217-0.688-25.767-2.064c-3.852-0.649-7.507-4.305-8.156-8.15 c-2.753-17.105-2.753-34.445-0.001-51.544c0.649-3.854,4.305-7.509,8.15-8.156c17.106-2.753,34.445-2.756,51.545-0.001l0.007,0.001 c3.845,0.648,7.501,4.304,8.149,8.149c2.753,17.105,2.753,34.445,0.001,51.544c-0.649,3.854-4.305,7.509-8.15,8.156 C67.223,85.302,58.609,85.99,49.998,85.99z M50,16.01c-8.503,0-17.007,0.68-25.451,2.039c-2.96,0.498-6.002,3.54-6.501,6.508 C15.33,41.438,15.33,58.562,18.049,75.45c0.499,2.96,3.541,6.002,6.507,6.502c16.881,2.719,34.007,2.718,50.895-0.001 c2.96-0.498,6.001-3.54,6.501-6.508c2.718-16.881,2.718-34.006-0.001-50.894c-0.499-2.959-3.538-6-6.504-6.502 C67.004,16.688,58.502,16.01,50,16.01z"/><path fill="#fefdef" d="M50,37.5H33c-1.933,0-3.5-1.567-3.5-3.5v0c0-1.933,1.567-3.5,3.5-3.5h17c1.933,0,3.5,1.567,3.5,3.5 v0C53.5,35.933,51.933,37.5,50,37.5z"/><path fill="#1f212b" d="M50,38H33c-2.206,0-4-1.794-4-4s1.794-4,4-4h17c2.206,0,4,1.794,4,4S52.206,38,50,38z M33,31 c-1.654,0-3,1.346-3,3s1.346,3,3,3h17c1.654,0,3-1.346,3-3s-1.346-3-3-3H33z"/><circle cx="64.5" cy="34.5" r="4" fill="#fefdef"/><path fill="#1f212b" d="M64.5,39c-2.481,0-4.5-2.019-4.5-4.5s2.019-4.5,4.5-4.5s4.5,2.019,4.5,4.5S66.981,39,64.5,39z M64.5,31c-1.93,0-3.5,1.57-3.5,3.5s1.57,3.5,3.5,3.5s3.5-1.57,3.5-3.5S66.43,31,64.5,31z"/><circle cx="64.5" cy="50.5" r="4" fill="#fefdef"/><path fill="#1f212b" d="M64.5,55c-2.481,0-4.5-2.019-4.5-4.5s2.019-4.5,4.5-4.5s4.5,2.019,4.5,4.5S66.981,55,64.5,55z M64.5,47c-1.93,0-3.5,1.57-3.5,3.5s1.57,3.5,3.5,3.5s3.5-1.57,3.5-3.5S66.43,47,64.5,47z"/><circle cx="49.5" cy="50.5" r="4" fill="#fefdef"/><path fill="#1f212b" d="M49.5,55c-2.481,0-4.5-2.019-4.5-4.5s2.019-4.5,4.5-4.5s4.5,2.019,4.5,4.5S51.981,55,49.5,55z M49.5,47c-1.93,0-3.5,1.57-3.5,3.5s1.57,3.5,3.5,3.5s3.5-1.57,3.5-3.5S51.43,47,49.5,47z"/><circle cx="64.5" cy="66.5" r="4" fill="#fefdef"/><path fill="#1f212b" d="M64.5,71c-2.481,0-4.5-2.019-4.5-4.5s2.019-4.5,4.5-4.5s4.5,2.019,4.5,4.5S66.981,71,64.5,71z M64.5,63c-1.93,0-3.5,1.57-3.5,3.5s1.57,3.5,3.5,3.5s3.5-1.57,3.5-3.5S66.43,63,64.5,63z"/><g><circle cx="49.5" cy="66.5" r="4" fill="#fefdef"/><path fill="#1f212b" d="M49.5,71c-2.481,0-4.5-2.019-4.5-4.5s2.019-4.5,4.5-4.5s4.5,2.019,4.5,4.5S51.981,71,49.5,71z M49.5,63c-1.93,0-3.5,1.57-3.5,3.5s1.57,3.5,3.5,3.5s3.5-1.57,3.5-3.5S51.43,63,49.5,63z"/></g><g><circle cx="34.5" cy="66.5" r="4" fill="#fefdef"/><path fill="#1f212b" d="M34.5,71c-2.481,0-4.5-2.019-4.5-4.5s2.019-4.5,4.5-4.5s4.5,2.019,4.5,4.5S36.981,71,34.5,71z M34.5,63c-1.93,0-3.5,1.57-3.5,3.5s1.57,3.5,3.5,3.5s3.5-1.57,3.5-3.5S36.43,63,34.5,63z"/></g><path fill="#1f212b" d="M50,81c-8.287,0-16.689-0.677-24.974-2.011c-1.704-0.287-3.731-2.328-4.02-4.045	c-2.665-16.553-2.663-33.347,0.005-49.918c0.287-1.704,2.327-3.731,4.043-4.021C33.321,19.675,41.713,19,50,19	c4.143,0,8.362,0.172,12.541,0.51c0.275,0.021,0.48,0.263,0.458,0.538c-0.022,0.276-0.26,0.48-0.539,0.458	C58.308,20.17,54.116,20,50,20c-8.234,0-16.573,0.671-24.784,1.992c-1.287,0.218-3.004,1.92-3.219,3.196	c-2.65,16.463-2.652,33.149-0.005,49.594c0.217,1.287,1.92,3.006,3.196,3.221C33.417,79.328,41.766,80,50,80	c8.234,0,16.573-0.671,24.784-1.992c1.287-0.218,3.003-1.92,3.219-3.196c0.869-5.397,1.46-10.896,1.757-16.339	c0.015-0.275,0.252-0.501,0.526-0.472c0.275,0.015,0.487,0.251,0.472,0.526c-0.298,5.478-0.894,11.011-1.769,16.446	c-0.288,1.704-2.328,3.731-4.043,4.021C66.679,80.325,58.287,81,50,81z"/><path fill="#1f212b" d="M80.426,55c-0.005,0-0.01,0-0.015,0c-0.276-0.008-0.494-0.238-0.486-0.515	c0.086-2.974,0.086-5.992,0-8.971c-0.008-0.276,0.209-0.507,0.486-0.515c0.275,0,0.506,0.21,0.514,0.485	c0.086,2.998,0.085,6.036,0,9.029C80.918,54.785,80.695,55,80.426,55z"/><path fill="#1f212b" d="M80.31,43c-0.265,0-0.486-0.208-0.499-0.476c-0.063-1.33-0.145-2.659-0.243-3.987	c-0.021-0.275,0.186-0.516,0.461-0.536c0.28-0.021,0.515,0.187,0.536,0.462c0.099,1.338,0.18,2.675,0.245,4.013	c0.013,0.276-0.2,0.511-0.476,0.523C80.326,43,80.318,43,80.31,43z"/></svg>